<?xml version="1.0" encoding="UTF-8"?>
<svg width="120px" height="100px" viewBox="0 0 120 100" version="1.1" xmlns="http://www.w3.org/2000/svg" xmlns:xlink="http://www.w3.org/1999/xlink">
    <defs>
        <linearGradient x1="52.1223958%" y1="8.73474482%" x2="52.1223958%" y2="96.8406503%" id="linearGradient-1">
            <stop stop-color="#FFFFFF" offset="0%"></stop>
            <stop stop-color="#FFFFFF" stop-opacity="0.755490603" offset="78.1477073%"></stop>
            <stop stop-color="#FFFFFF" stop-opacity="0.429149683" offset="86.5725336%"></stop>
            <stop stop-color="#FFFFFF" stop-opacity="0" offset="100%"></stop>
        </linearGradient>
    </defs>
    <g id="empty-illustration" stroke="none" stroke-width="1" fill="none" fill-rule="evenodd">
        <rect fill="#FFFFFF" x="0" y="0" width="120" height="100"></rect>
        <g id="Group" transform="translate(0.000000, 4.000000)" fill-rule="nonzero">
            <g id="Group-2">
                <path d="M57.0144365,88 C45.1830242,88 3.33883625,83.6637162 0.277644612,57.6404825 C-2.78354703,31.6172488 20.1686092,28.1379555 34.656958,15.3498499 C49.1453067,2.56174431 71.7004735,-3.53170774 89.9860594,3.03466727 C108.271645,9.60104229 118.482408,24.0351952 111.916204,53.5731532 C105.35,83.1111111 68.8458488,88 57.0144365,88 Z" id="Mask" fill="#D9E9F3" opacity="0.477399554"></path>
                <path d="M21.8049994,10.9999995 L74.725,11 L94.325,30.4958767 L93.6492168,79.6072312 C75.2649103,87.6955639 61.68917,91.8264868 52.9219958,92 C44.1548216,92.1735132 31.8224897,88.5553453 15.925,81.1454965 L15.9249994,16.8799995 C15.9249994,13.6325652 18.557565,10.9999995 21.8049993,10.9999994 C21.8049993,10.9999994 21.8049994,10.9999994 21.8049994,10.9999994 Z" id="Rectangle-Copy" fill="url(#linearGradient-1)"></path>
                <path d="M74.725,11 L94.5684443,30.7059456 L76.685,30.7059456 C75.6025219,30.7059456 74.725,29.8284237 74.725,28.7459456 L74.725,11 Z" id="Rectangle" fill="#CADAE7" opacity="0.757533482"></path>
            </g>
            <path d="M26.4637831,66.1860422 C29.1823081,57.9946778 35.3676738,52.8161794 45.0198799,50.6505471 C59.4981892,47.4020985 69.5905466,53.8822161 74.3705419,59.0129446 C79.1505372,64.1436732 73.0333059,69.1441707 70.0825404,66.1613112 C67.3054134,63.3539788 68.8626215,58.3995158 74.3705419,59.0129446 C84.7861099,60.1729486 92.784096,67.0109385 105.542734,67.0037046" id="Path-107" stroke="#1F8DFB" stroke-width="0.98" stroke-linecap="round" stroke-linejoin="round" stroke-dasharray="2.94,2.94" transform="translate(66.003259, 58.416715) scale(1, -1) rotate(15.000000) translate(-66.003259, -58.416715) "></path>
            <g id="Group-8" transform="translate(106.798683, 34.727567) rotate(16.000000) translate(-106.798683, -34.727567) translate(96.173683, 24.075669)" fill="#1F8DFB">
                <polygon id="Path-109" points="20.5721 0.870001468 0.972100046 11.3866012 8.83426021 14.4154613 15.5112243 7.35591441"></polygon>
                <polygon id="Path-110" points="20.3865319 0.915839529 16.3809905 5.67154111 10.2388522 15.3702628 16.9813139 21.2314825"></polygon>
            </g>
        </g>
    </g>
</svg>
